<svg width="42" height="42" viewBox="0 0 42 42" fill="none" xmlns="http://www.w3.org/2000/svg">
<path d="M35.7506 4.98961H6.29145C5.58299 4.98961 5.01062 5.56198 5.01062 6.27044V35.7296C5.01062 36.438 5.58299 37.0104 6.29145 37.0104H35.7506C36.459 37.0104 37.0314 36.438 37.0314 35.7296V6.27044C37.0314 5.56198 36.459 4.98961 35.7506 4.98961ZM32.0522 14.3357H29.4945C27.4892 14.3357 27.101 15.2883 27.101 16.6892V19.7752H31.8881L31.2637 24.6063H27.101V37.0104H22.1097V24.6103H17.935V19.7752H22.1097V16.2129C22.1097 12.0782 24.6354 9.82475 28.3257 9.82475C30.0949 9.82475 31.6119 9.95683 32.0562 10.0169V14.3357H32.0522Z" fill="white"/>
</svg>
