<svg width="42" height="42" viewBox="0 0 42 42" fill="none" xmlns="http://www.w3.org/2000/svg">
<path d="M35.7384 4.98961H6.27924C5.57078 4.98961 4.99841 5.56198 4.99841 6.27044V35.7296C4.99841 36.438 5.57078 37.0104 6.27924 37.0104H35.7384C36.4468 37.0104 37.0192 36.438 37.0192 35.7296V6.27044C37.0192 5.56198 36.4468 4.98961 35.7384 4.98961ZM14.4966 32.2753H9.74549V16.9934H14.4966V32.2753ZM12.123 14.904C11.5784 14.904 11.046 14.7425 10.5931 14.4399C10.1403 14.1374 9.7873 13.7073 9.57887 13.2041C9.37044 12.7009 9.31591 12.1472 9.42216 11.613C9.52842 11.0788 9.79069 10.5882 10.1758 10.203C10.5609 9.81791 11.0516 9.55564 11.5858 9.44938C12.12 9.34313 12.6737 9.39766 13.1769 9.60609C13.6801 9.81452 14.1101 10.1675 14.4127 10.6203C14.7153 11.0732 14.8768 11.6056 14.8768 12.1503C14.8728 13.6712 13.64 14.904 12.123 14.904ZM32.2841 32.2753H27.537V24.8425C27.537 23.0693 27.505 20.7919 25.0674 20.7919C22.5978 20.7919 22.2176 22.7211 22.2176 24.7144V32.2753H17.4745V16.9934H22.0295V19.0828H22.0935C22.7259 17.882 24.2749 16.6132 26.5884 16.6132C31.3995 16.6132 32.2841 19.7792 32.2841 23.8939V32.2753Z" fill="white"/>
</svg>
