<svg width="42" height="42" viewBox="0 0 42 42" fill="none" xmlns="http://www.w3.org/2000/svg">
<path d="M37.6852 10.6853C36.4604 11.2137 35.1276 11.5939 33.7547 11.742C35.1801 10.8952 36.2475 9.55741 36.7566 7.97959C35.4191 8.77526 33.9538 9.3332 32.4258 9.62866C31.7872 8.94592 31.0148 8.40202 30.1568 8.03085C29.2987 7.65968 28.3735 7.4692 27.4386 7.47126C23.6561 7.47126 20.6142 10.5373 20.6142 14.2997C20.6142 14.828 20.6782 15.3564 20.7823 15.8647C15.1186 15.5685 10.0673 12.8628 6.70915 8.72007C6.09725 9.76521 5.7766 10.9552 5.78055 12.1663C5.78055 14.5358 6.98533 16.6252 8.82252 17.854C7.73984 17.8114 6.6825 17.5138 5.73652 16.9854V17.0695C5.73652 20.3876 8.08204 23.1374 11.2081 23.7698C10.6211 23.9223 10.0173 24.0003 9.4109 24.002C8.96661 24.002 8.54634 23.958 8.12207 23.8979C8.98663 26.6037 11.5043 28.569 14.5022 28.633C12.1567 30.4702 9.21878 31.5509 6.02871 31.5509C5.45634 31.5509 4.92799 31.5309 4.37964 31.4668C7.4056 33.4081 10.9959 34.5288 14.8624 34.5288C27.4146 34.5288 34.283 24.1301 34.283 15.1042C34.283 14.808 34.283 14.5118 34.263 14.2156C35.5919 13.243 36.7566 12.0382 37.6852 10.6853Z" fill="white"/>
</svg>
